<?xml version="1.0" encoding="utf-8"?>
<!-- Generator: Adobe Illustrator 15.1.0, SVG Export Plug-In . SVG Version: 6.00 Build 0)  -->
<!DOCTYPE svg PUBLIC "-//W3C//DTD SVG 1.1//EN" "http://www.w3.org/Graphics/SVG/1.1/DTD/svg11.dtd">
<svg version="1.1" id="Calque_1" xmlns="http://www.w3.org/2000/svg" xmlns:xlink="http://www.w3.org/1999/xlink" x="0px" y="0px"
	 width="640px" height="480px" viewBox="0 0 640 480" enable-background="new 0 0 640 480" xml:space="preserve">
<g>
	<path fill="#BD4568" d="M142.265,252.844c-24.33,12.168-78.431,66.393-101.23,115.92c-2.431,5.281-0.452,11.566,4.598,14.449
		c35.245,20.117,123.175,16.965,164.934,9.545c17.162-38.344,3.304-146.652,3.304-146.652L142.265,252.844z"/>
	<path fill="#EDA751" d="M61.986,391.902c-2.558,0-5.133-0.863-7.254-2.629c-4.818-4.01-5.475-11.166-1.463-15.984
		c20.299-24.389,38.289-29.104,54.159-33.26c11.675-3.061,21.757-5.703,33.076-16.572c4.522-4.344,11.707-4.199,16.048,0.322
		c4.342,4.521,4.198,11.707-0.323,16.049c-15.578,14.963-30.171,18.787-43.048,22.16c-14.391,3.771-26.82,7.027-42.466,25.824
		C68.472,390.51,65.241,391.902,61.986,391.902z"/>
	<path fill="#FCD79D" d="M60.053,365.768c-2.233,2.279-4.493,4.77-6.785,7.523c-4.011,4.818-3.355,11.975,1.463,15.984
		c2.121,1.766,4.695,2.627,7.254,2.627c3.255,0,6.486-1.393,8.73-4.088c2.161-2.598,4.259-4.889,6.312-6.936
		C72.817,373.775,66.068,368.303,60.053,365.768z"/>
	<g>
		<path fill="#EDA751" d="M124.681,420.561c-6.542,0-12.861-3.545-16.105-9.744c-4.651-8.887-1.218-19.859,7.668-24.512
			c20.699-10.834,31.078-24.494,40.234-36.545c1.032-1.359,2.039-2.686,3.031-3.971c6.13-7.936,17.536-9.402,25.473-3.271
			c7.938,6.131,9.403,17.535,3.273,25.473c-0.936,1.211-1.884,2.461-2.857,3.74c-10.312,13.574-24.436,32.162-52.313,46.754
			C130.399,419.891,127.52,420.561,124.681,420.561z"/>
		<path fill="#EDA751" d="M212.77,420.828c-5.217,0-10.394-2.236-13.986-6.566c-6.403-7.717-5.338-19.166,2.38-25.572
			c14.922-12.381,11.895-29.367,10.681-32.197c-3.952-9.219,0.317-19.896,9.535-23.848c9.219-3.951,19.896,0.316,23.848,9.535
			c6.986,16.297,7.499,50.922-20.871,74.463C220.966,419.455,216.855,420.828,212.77,420.828z"/>
		<path fill="#EDA751" d="M263.133,312.961c-9.001,0-16.813-6.688-17.989-15.852c-1.277-9.949,5.754-19.049,15.701-20.324
			c12.714-1.631,51.657-22.805,74.408-40.458c7.925-6.149,19.331-4.71,25.48,3.214c6.147,7.924,4.708,19.333-3.215,25.481
			c-22.706,17.617-68.55,44.773-92.049,47.789C264.684,312.91,263.902,312.961,263.133,312.961z"/>
	</g>
	<g>
		<path opacity="0.2" fill="#A35F00" enable-background="new    " d="M296.698,302.072c0.248-12.719-2.271-25.219-7.357-36.879
			c-12.175,6.348-22.889,10.871-28.497,11.592c-9.948,1.275-16.978,10.375-15.701,20.324c1.176,9.164,8.989,15.852,17.989,15.852
			c0.77,0,1.551-0.051,2.335-0.15C273.759,311.746,284.838,307.668,296.698,302.072z"/>
		<path opacity="0.2" fill="#A35F00" enable-background="new    " d="M221.379,332.645c-9.218,3.951-13.487,14.629-9.535,23.848
			c1.214,2.83,4.241,19.816-10.681,32.197c-1.106,0.918-2.07,1.943-2.901,3.041c0.572,0.01,1.146,0.027,1.717,0.027
			c16.702,0,32.979-4.043,47.328-11.592c3.591-14.924,1.708-29.15-2.08-37.986C241.274,332.963,230.598,328.693,221.379,332.645z"/>
		<path opacity="0.2" fill="#A35F00" enable-background="new    " d="M184.984,342.518c-7.937-6.131-19.343-4.664-25.474,3.271
			c-0.993,1.285-1.999,2.611-3.032,3.971c-5.254,6.916-10.916,14.361-18.695,21.5c10.191,7.666,21.851,13.361,34.421,16.783
			c5.213-5.809,9.457-11.389,13.195-16.311c0.973-1.279,1.922-2.529,2.858-3.74C194.387,360.053,192.922,348.648,184.984,342.518z"
			/>
		<path opacity="0.2" fill="#A35F00" enable-background="new    " d="M140.504,323.457c-10.369,9.959-19.702,13.012-30.171,15.805
			c3.054,5.77,6.758,11.293,11.101,16.486c0.892,1.066,1.809,2.107,2.742,3.131c9.981-3.211,20.759-8.201,32.053-19.049
			c4.52-4.344,4.665-11.529,0.323-16.049C152.211,319.26,145.026,319.113,140.504,323.457z"/>
	</g>
	
		<ellipse transform="matrix(-0.9921 -0.1252 0.1252 -0.9921 357.6245 620.7612)" fill="#FCD690" cx="198.321" cy="299.142" rx="83.756" ry="77.832"/>
	<g>
		<path fill="#FF91AB" d="M198.579,359.965c-0.674,0-1.351-0.025-2.029-0.072c-8.837-0.627-16.011-5.314-19.684-12.859
			c-1.331-2.734-0.192-6.029,2.542-7.359c2.736-1.332,6.028-0.193,7.359,2.541c2.476,5.09,7.11,6.449,10.562,6.695
			c5.236,0.375,10.824-1.764,12.987-4.967c1.703-2.518,5.125-3.18,7.645-1.477c2.519,1.703,3.18,5.123,1.479,7.645
			C215.359,356.146,207.156,359.965,198.579,359.965z"/>
		<circle fill="#FF91AB" cx="225.512" cy="322.283" r="31.518"/>
	</g>
	<path opacity="0.15" fill="#C17A00" enable-background="new    " d="M176.573,374.008c-34.831-29.725-16.615-79.342-7.349-100.875
		l6.225-49.344c-31.533,7.829-56.152,32.717-60.207,64.864C110.346,327.471,137.118,363.484,176.573,374.008z"/>
	<path fill="#BD4568" d="M122.843,244.525c-13.317,1.578-21.622,34.566,6.735,36.965c38.729,3.275,78.498,7.662,95.271,18.064
		c2.944,1.826,6.614,1.832,9.646,0.158c15.932-8.799,44.25-8.188,53.357-9.596c21.094-3.264,11.251-36.277-2.163-35.531
		C272.274,255.332,122.843,244.525,122.843,244.525z"/>
	<path fill="#EDA751" d="M164.697,160.203c17.112-12.844,29.292-35.304,8.06-70.638c-21.401-35.613-55.574-46.106-82.792-44.389
		c-6.71,0.423-12.56,4.813-14.84,11.138c-9.251,25.655-8.721,61.398,19.496,91.895C122.617,178.467,147.585,173.046,164.697,160.203
		z"/>
	<path fill="#FF91AB" d="M73.819,60.247C66.003,85.54,67.815,119.24,94.62,148.21c24.267,26.227,46.253,25.641,62.826,16.659
		C150.485,89.394,103.383,66.921,73.819,60.247z"/>
	<path fill="#EDA751" d="M266.497,165.734c-15.621-14.623-25.295-38.27-0.359-71.095c25.134-33.085,60.242-39.812,87.115-35.157
		c6.624,1.148,11.963,6.146,13.545,12.681c6.417,26.506,2.018,61.982-29.338,89.241
		C306.352,188.451,282.117,180.356,266.497,165.734z"/>
	<path fill="#FF91AB" d="M367.671,76.214c5.027,25.991-0.424,59.295-30.211,85.191c-26.963,23.444-48.758,20.479-64.261,9.753
		C288.298,96.882,337.559,79.645,367.671,76.214z"/>
	<path fill="#FFDC9C" d="M356.866,191.433c-3.539,65.108-68.839,90.159-147.482,85.885c-78.643-4.273-140.845-36.254-137.308-101.36
		c3.538-65.106,70.158-114.422,148.8-110.148C299.519,70.083,360.403,126.327,356.866,191.433z"/>
	<path opacity="0.15" fill="#C17A00" enable-background="new    " d="M143.855,79.88C102.841,98.604,74.356,134,72.076,175.958
		c-3.041,55.968,42.498,87.456,105.299,97.909C89.623,214.762,105.411,142.534,143.855,79.88z"/>
	<g>
		
			<ellipse transform="matrix(-0.9985 -0.0543 0.0543 -0.9985 320.2291 360.0601)" fill="#FF91AB" cx="165.007" cy="175.679" rx="25.823" ry="20.559"/>
		
			<ellipse transform="matrix(0.9985 0.0543 -0.0543 0.9985 10.4 -16.2791)" fill="#FF91AB" cx="304.789" cy="183.254" rx="25.822" ry="20.559"/>
	</g>
	<g>
		<path fill="#495059" d="M181.166,161.513c-0.102,0-0.202-0.002-0.304-0.007c-3.036-0.166-5.363-2.761-5.198-5.795l0.495-9.105
			c0.166-3.037,2.763-5.37,5.796-5.199c3.036,0.165,5.364,2.76,5.199,5.795l-0.495,9.104
			C186.498,159.24,184.068,161.513,181.166,161.513z"/>
		<path fill="#495059" d="M290.862,167.474c-0.101,0-0.202-0.002-0.305-0.008c-3.035-0.165-5.363-2.76-5.197-5.795l0.494-9.104
			c0.167-3.038,2.776-5.364,5.796-5.199c3.038,0.166,5.365,2.761,5.2,5.796l-0.495,9.105
			C296.195,165.2,293.765,167.474,290.862,167.474z"/>
		<path fill="#495059" d="M236.672,171.513c-0.446,0-0.894-0.012-1.342-0.037c-7.131-0.387-13.744-3.843-18.144-9.484
			c-1.871-2.397-1.443-5.856,0.954-7.727c2.397-1.869,5.858-1.443,7.727,0.955c2.441,3.13,6.108,5.048,10.062,5.263
			c3.943,0.214,7.805-1.294,10.571-4.143c2.118-2.18,5.604-2.23,7.784-0.11c2.182,2.119,2.231,5.604,0.112,7.785
			C249.723,168.822,243.326,171.513,236.672,171.513z"/>
		<path fill="#495059" d="M128.796,176.81c-2.586,0-4.892-1.83-5.4-4.463c-0.577-2.984,1.377-5.873,4.362-6.449
			c7.176-1.384,24.115-1.728,32.272-0.197c2.988,0.563,4.956,3.438,4.395,6.427c-0.562,2.988-3.443,4.956-6.427,4.394
			c-6.651-1.249-22.214-0.959-28.154,0.187C129.493,176.777,129.141,176.81,128.796,176.81z"/>
		<path fill="#495059" d="M135.349,207.805c-1.791,0-3.547-0.873-4.604-2.482c-1.67-2.541-0.965-5.954,1.575-7.625
			c6.105-4.014,21.637-10.787,29.763-12.479c2.971-0.616,5.891,1.291,6.511,4.268c0.62,2.976-1.291,5.892-4.268,6.512
			c-6.626,1.379-20.905,7.577-25.958,10.899C137.437,207.513,136.387,207.805,135.349,207.805z"/>
		<path fill="#495059" d="M341.252,188.354c-0.537,0-1.083-0.08-1.625-0.246c-5.778-1.783-21.223-3.754-27.967-3.236
			c-3.055,0.229-5.681-2.034-5.913-5.064c-0.235-3.031,2.031-5.679,5.063-5.913c8.275-0.642,25.08,1.538,32.062,3.692
			c2.906,0.896,4.535,3.978,3.639,6.883C345.782,186.834,343.603,188.354,341.252,188.354z"/>
		<path fill="#495059" d="M331.384,218.457c-1.233,0-2.476-0.412-3.502-1.26c-4.662-3.85-18.184-11.559-24.623-13.647
			c-2.893-0.939-4.477-4.044-3.537-6.936c0.938-2.892,4.043-4.475,6.938-3.537c7.895,2.563,22.6,10.979,28.234,15.63
			c2.344,1.936,2.676,5.405,0.74,7.75C334.546,217.774,332.97,218.457,331.384,218.457z"/>
	</g>
	<path fill="#EDA751" d="M137.347,341.314c-15.256,0-29.156-7.363-36.321-19.584c-4.202-7.166-5.8-15.543-4.62-24.225
		c1.109-8.162,4.644-16.5,10.509-24.783c5.794-8.186,17.128-10.123,25.315-4.326c8.186,5.797,10.123,17.131,4.327,25.316
		c-4.135,5.838-4.347,9.133-4.178,9.697c0.345,0.52,2.824,1.873,6.193,1.516c9.979-1.063,18.92,6.164,19.98,16.139
		c1.062,9.975-6.164,18.918-16.137,19.98C140.715,341.225,139.021,341.314,137.347,341.314z"/>
	<g opacity="0.07">
		<path d="M245.858,298.219c-18.586,9.49-41.429,13.969-50.377,14.477c-0.963,3.021-1.488,6.24-1.488,9.584
			c0,0.467,0.015,0.93,0.035,1.391c10.823-0.207,37.485-5.123,58.992-16.766C251.166,303.594,248.733,300.654,245.858,298.219z"/>
		<path d="M256.891,325.148c0.085-0.945,0.136-1.9,0.136-2.869c0-3.207-0.482-6.303-1.374-9.219
			c-20.494,13.146-51.265,18.594-60.246,18.584c1.213,3.904,3.167,7.48,5.692,10.568
			C214.582,340.885,238.063,335.729,256.891,325.148z"/>
	</g>
	<g>
	</g>
	<g>
	</g>
	<g>
	</g>
	<g>
	</g>
	<g>
	</g>
	<g>
	</g>
	<g>
	</g>
	<g>
	</g>
	<g>
	</g>
	<g>
	</g>
	<g>
	</g>
	<g>
	</g>
	<g>
	</g>
	<g>
	</g>
	<g>
	</g>
</g>
<g>
	<text transform="matrix(1 0 0 1 383.8438 186.583)" fill="#495059" font-family="'OctoberTwilight'" font-size="128.2926">Ti</text>
	<text transform="matrix(1 0 0 1 426.6084 279.2373)" fill="#495059" font-family="'OctoberTwilight'" font-size="128.2926">ki</text>
	<text transform="matrix(1 0 0 1 371.0146 401.8281)" fill="#495059" font-family="'OctoberTwilight'" font-size="128.2926">ti</text>
</g>
</svg>
